<?xml version="1.0" encoding="UTF-8" standalone="no"?>
<!-- Created with Inkscape (http://www.inkscape.org/) -->

<svg
   width="1080"
   height="1080"
   viewBox="0 0 285.74999 285.75"
   version="1.1"
   id="svg1"
   xml:space="preserve"
   inkscape:export-filename="..\..\Documents\Python Projects\Python_WebApp\Quiz app\logo.svg"
   inkscape:export-xdpi="96"
   inkscape:export-ydpi="96"
   inkscape:version="1.4.2 (f4327f4, 2025-05-13)"
   sodipodi:docname="logo.svg"
   xmlns:inkscape="http://www.inkscape.org/namespaces/inkscape"
   xmlns:sodipodi="http://sodipodi.sourceforge.net/DTD/sodipodi-0.dtd"
   xmlns="http://www.w3.org/2000/svg"
   xmlns:svg="http://www.w3.org/2000/svg"><sodipodi:namedview
     id="namedview1"
     pagecolor="#ffffff"
     bordercolor="#000000"
     borderopacity="0.25"
     inkscape:showpageshadow="2"
     inkscape:pageopacity="0.0"
     inkscape:pagecheckerboard="0"
     inkscape:deskcolor="#d1d1d1"
     inkscape:document-units="mm"
     inkscape:export-bgcolor="#ffffff00"
     inkscape:zoom="0.50268269"
     inkscape:cx="284.47369"
     inkscape:cy="370.01473"
     inkscape:window-width="1920"
     inkscape:window-height="991"
     inkscape:window-x="-9"
     inkscape:window-y="-9"
     inkscape:window-maximized="1"
     inkscape:current-layer="layer1"><inkscape:page
       x="0"
       y="0"
       width="285.75"
       height="285.75"
       id="page2"
       margin="0"
       bleed="0" /></sodipodi:namedview><defs
     id="defs1" /><g
     inkscape:label="Layer 1"
     inkscape:groupmode="layer"
     id="layer1"><path
       style="fill:#955afd;stroke-width:2.22247"
       d="m 49.501663,254.85126 c -20.861151,-4.15719 -36.985365,-23.92335 -36.985365,-45.33921 0,-20.45244 14.004179,-38.72023 34.134651,-44.527 7.272203,-2.09772 12.050844,-2.39815 19.669908,-1.2366 10.807244,1.64758 13.679422,1.69978 17.346831,0.31529 2.928099,-1.10538 16.374592,-9.81017 19.992972,-12.94272 2.35068,-2.03506 29.81765,-21.22354 30.38002,-21.22354 0.74814,0 23.02642,-15.03377 30.27751,-20.43179 9.24793,-6.88454 28.11482,-24.69678 58.71214,-55.430164 10.44198,-10.488405 17.39395,-13.956544 29.12565,-14.529985 9.57502,-0.468008 15.96162,1.346971 20.77384,5.903675 8.12211,7.69083 8.8055,20.013618 1.77474,32.001791 -1.35161,2.30467 -6.49322,7.841975 -16.09854,17.337531 l -14.11266,13.951402 -5.05652,0.0134 c -2.78109,0.008 -7.04447,-0.15379 -9.47416,-0.35915 l -4.41764,-0.37344 12.99239,-12.710192 c 22.03426,-21.555676 23.67209,-23.314217 25.944,-27.855519 3.2937,-6.583712 2.78815,-11.537462 -1.47378,-14.441027 -1.84358,-1.256028 -2.52212,-1.369218 -6.75372,-1.126591 -5.31277,0.304588 -9.48526,1.582108 -12.93662,3.960883 -1.29367,0.891631 -14.77534,13.758615 -29.95931,28.593299 -15.18395,14.834665 -31.85455,31.073637 -37.04576,36.086577 -5.19123,5.01293 -9.52231,9.43572 -9.62465,9.82846 -0.32017,1.22856 2.15248,1.41045 16.69064,1.22762 l 14.12279,-0.17757 3.43825,-2.05809 c 1.89103,-1.13197 5.48087,-3.96889 7.97741,-6.3043 2.49655,-2.33542 5.17191,-4.45232 5.94526,-4.70424 0.77333,-0.25191 5.43685,-0.32571 10.36333,-0.16402 l 8.95723,0.29405 -8.88896,8.52638 c -14.47762,13.88714 -15.65971,14.57499 -29.39859,17.10678 -5.28901,0.97466 -10.01328,1.93247 -10.49841,2.12847 -0.48511,0.19603 -1.05787,0.32193 -1.27278,0.27979 -1.046,-0.20513 -7.05983,1.96511 -10.24672,3.69765 -1.96959,1.07077 -9.87444,6.14278 -17.56629,11.27112 -7.69185,5.12837 -15.12186,9.98582 -16.51112,10.79435 -3.98284,2.31797 -22.88368,14.71809 -26.88899,17.64084 -2.74362,2.00207 -4.05216,3.47906 -5.37604,6.06812 -1.68301,3.29141 -1.75721,3.76982 -1.94446,12.53423 -0.17447,8.17023 -0.37404,9.67054 -1.92983,14.51285 -2.24446,6.98573 -5.184827,11.94657 -10.287596,17.3567 -7.316256,7.75697 -15.229728,12.44631 -24.089479,14.27491 -6.141036,1.26748 -14.105075,1.35931 -19.781572,0.22812 z M 65.438826,238.6352 c 13.373797,-3.06652 23.766914,-15.83543 23.653059,-29.05992 -0.195799,-22.74655 -25.538047,-37.06335 -45.671071,-25.80139 -8.651379,4.83937 -15.027752,15.87168 -15.027752,26.00081 0,10.48707 7.714943,22.3558 17.282957,26.58818 6.147395,2.71929 13.917269,3.61268 19.762807,2.27232 z m 72.211284,-79.16098 c 2.79931,-2.08999 3.93834,-4.18151 3.93834,-7.23167 0,-8.56559 -11.23867,-11.90958 -16.01204,-4.76428 -2.79448,4.1831 -1.17099,10.22726 3.38115,12.58773 2.51611,1.3047 6.51726,1.03231 8.69255,-0.59178 z m 116.00003,85.9396 c -4.52552,-0.98142 -11.09881,-4.02164 -14.74305,-6.81887 -2.59178,-1.98935 -20.10487,-14.34688 -33.5176,-23.65054 -3.71928,-2.57987 -9.27614,-6.45152 -12.34858,-8.60371 -3.07246,-2.15218 -10.96744,-7.59709 -17.54446,-12.09979 -23.5273,-16.10714 -27.1537,-18.70421 -26.71171,-19.12967 0.24645,-0.23723 6.62693,-4.02151 14.17886,-8.40951 l 13.73078,-7.97819 3.91006,3.67794 c 2.15055,2.02286 16.87609,16.77217 32.72345,32.77622 33.10357,33.43091 39.00397,39.06222 44.69012,42.65202 4.67314,2.95028 10.29289,5.35561 13.83664,5.92227 3.13697,0.50161 2.37069,1.1101 -2.4183,1.92028 -5.07054,0.85781 -11.09369,0.7592 -15.78621,-0.25845 z M 93.076149,138.96363 C 82.864309,130.01172 78.90178,128.6483 66.430909,129.79563 47.27124,131.55833 31.82353,125.51033 21.633144,112.25664 16.040617,104.98297 13.187333,96.805728 12.707777,86.677434 11.802774,67.563509 22.133329,50.79259 39.521315,43.147543 c 28.285599,-12.436442 62.593055,7.434201 64.556995,37.390939 0.19402,2.960661 0.0309,6.71416 -0.39654,9.114431 -0.39957,2.244475 -1.07796,6.063655 -1.50752,8.487045 -1.83328,10.342602 0.85436,14.172972 16.59245,23.647272 l 5.9916,3.60695 -12.66526,9.01397 c -6.96589,4.95768 -12.969774,8.99667 -13.341969,8.97553 -0.372172,-0.0223 -2.925908,-2.01018 -5.674922,-4.42005 z M 68.378971,112.64286 C 78.840577,108.93945 85.66011,101.13648 88.138334,90.033981 92.039813,72.555266 76.921097,55.217924 57.777642,55.217924 c -4.659018,0 -8.932811,1.176775 -14.123313,3.888853 -8.665404,4.527725 -14.356033,13.37364 -15.095938,23.466201 -0.754394,10.29016 5.364149,21.855322 14.360056,27.143182 7.633553,4.48703 17.76345,5.65147 25.460524,2.9267 z m 141.640689,-6.1195 c -0.34814,-0.88938 -0.77665,-2.63401 -0.95225,-3.8769 -0.31726,-2.24551 -0.2656,-2.31394 8.14487,-10.788032 11.21807,-11.302901 16.04554,-15.471498 17.91693,-15.471498 2.612,0 4.95394,1.603987 4.95394,3.392888 0,1.301725 -2.49138,4.083608 -13.41542,14.97962 -14.13087,14.094642 -15.38801,14.982982 -16.64807,11.763922 z"
       id="path14" /><path
       style="fill:#b894ff;stroke-width:3.70001;stroke-opacity:0.924138;paint-order:stroke fill markers;fill-opacity:0.99607843"
       d="m 177.0485,158.16596 10.32948,-5.5266 c 0,0 86.97811,90.79411 86.97811,90.92569 0,0.13159 -0.0127,0.1201 -0.0127,0.1201 0,0 -5.88033,-1.37767 -7.30407,-1.95395 l -1.95394,-0.79088 c 0,0 -1.77976,-0.33543 -5.43314,-2.77028 l -3.67642,-2.26421 -30.30642,-29.38214 z"
       id="path23"
       sodipodi:nodetypes="ccscscsccc" /></g></svg>
